<svg xmlns="http://www.w3.org/2000/svg" viewBox="0 0 222.25 222.51"><defs><style>.cls-1{fill:#ff6c6c;}</style></defs><title>Asset 1</title><g id="Layer_2" data-name="Layer 2"><g id="Layer_1-2" data-name="Layer 1"><g id="Layer_1-2-2" data-name="Layer 1-2"><path class="cls-1" d="M219.42,30.8,200.2,11.55l-3.87-3.88A26,26,0,0,0,177.91,0H134.74a2.6,2.6,0,0,0-2.6,2.61V32a12,12,0,0,1-2.8,4.61L120,46,82.82,83,30.75,134.88,2.37,163.15A8,8,0,0,0,0,168.85v16a9.65,9.65,0,0,0,2.83,6.86l17.75,17.78,5.34,5.36a26,26,0,0,0,18.42,7.66H86.92a2.67,2.67,0,0,0,2.65-2.65v-7.55l.1-18.3a9.69,9.69,0,0,1,1.16-4.54l1.73-3.2.33-.38,8.53-8.55,38-37.87L191.5,87.6l28.38-28.27a8.05,8.05,0,0,0,2.37-5.71v-16A9.63,9.63,0,0,0,219.42,30.8Z"/><path class="cls-1" d="M180.77,145l-.68-.08h-.36c-.64-.06-1.28-.1-1.91-.13H175a37.24,37.24,0,0,0-36.27,35.93v41.14a.61.61,0,0,0,.6.62h44.82a26,26,0,0,0,18.43-7.66l4-4.05a52.13,52.13,0,0,0,15.17-36.69l-17.75-17.64A39.69,39.69,0,0,0,180.77,145Z"/><path class="cls-1" d="M9.16,41.65a37.24,37.24,0,0,0,74.45-1.39V1.58A1.52,1.52,0,0,0,82.09.06h-45A26,26,0,0,0,19.68,7.74L9.51,18a1.29,1.29,0,0,0-.38,1V39Z"/></g></g></g></svg>