<svg xmlns="http://www.w3.org/2000/svg" viewBox="0 0 1612.01 390.07"><defs><style>.cls-1,.cls-2{fill:#f04d4e;}.cls-2{stroke:#231f20;stroke-miterlimit:10;}.cls-3{fill:#f04945;}.cls-4{fill:#fff;}</style></defs><g id="Layer_2" data-name="Layer 2"><g id="Layer_1-2" data-name="Layer 1"><path class="cls-1" d="M5.54,335,46,375.43a45.42,45.42,0,0,0,32.16,13.34h.06l15.25,0h.06l59.09-.08a4.55,4.55,0,0,0,4.54-4.55L157,331.65a2.72,2.72,0,0,1,.8-1.92h0l86.42-86.06,91-90.61,49.59-49.38a14.12,14.12,0,0,0,4.14-10V65.86a16.89,16.89,0,0,0-4.93-12L343.7,13.38A45.44,45.44,0,0,0,311.5,0H239.81a7.26,7.26,0,0,0-7.25,7.26V50.58l0,.19A20.86,20.86,0,0,1,226.64,64h0l-80.86,81.18L54,237.42,4.7,286.89a14.07,14.07,0,0,0-4.11,9.93V323A16.86,16.86,0,0,0,5.54,335Z"/><polygon class="cls-2" points="0.5 388.49 0.87 388.49 0.5 388.86 0.5 388.49"/><path class="cls-3" d="M384.05,53.82,343.64,13.34A45.44,45.44,0,0,0,311.48,0h-.06L296.16,0h-.05L237,.1a4.55,4.55,0,0,0-4.54,4.55l.07,52.47a2.72,2.72,0,0,1-.8,1.92h0L145.33,145.1l-91,90.61L4.74,285.09a14.09,14.09,0,0,0-4.15,10v27.84a16.94,16.94,0,0,0,4.93,11.95l40.36,40.53a45.46,45.46,0,0,0,32.2,13.38h71.69a7.26,7.26,0,0,0,7.26-7.26V338A20.87,20.87,0,0,1,163,324.76h0l80.85-81.18,91.83-92.23,49.26-49.47A14.06,14.06,0,0,0,389,92V65.78A16.85,16.85,0,0,0,384.05,53.82Z"/><path class="cls-1" d="M162.4,325.35l-3.08,5.7a17,17,0,0,0-2,7.93L157,384.23a4.55,4.55,0,0,1-4.54,4.54H92.57a14.12,14.12,0,0,0,10-4.14Z"/><path class="cls-1" d="M357.29,273.35h0a69.71,69.71,0,0,0-98.48-.1l-2.67,2.65a45.47,45.47,0,0,0-13.38,32.2v25.44a23.49,23.49,0,0,1-6.84,16.57l-34.37,34.52c-2.64,2.65-.81,4.14-.81,4.14H322.51a45.41,45.41,0,0,0,32.2-13.38l7.06-7.08a91,91,0,0,0,26.5-64.11h0Z"/><path class="cls-1" d="M295.92,0a14.09,14.09,0,0,0-9.19,4.08L237.06,53.55,231.55,59l-.07-54.39A4.55,4.55,0,0,1,236,.1Z"/><path class="cls-1" d="M183.42,0l-40,.05-.34,0a3.71,3.71,0,0,0-.67-.06L67.17.1c-.6,0-1.2,0-1.79,0A45.38,45.38,0,0,0,35,13.51L17.22,31.41A2.27,2.27,0,0,0,16.55,33l.06,47.82A45.44,45.44,0,0,0,30,113.05l2.51,2.51.05,0A71.11,71.11,0,0,0,42,123.47c.75.51,1.5,1,2.26,1.5,1.14.73,2.3,1.42,3.47,2.07.39.22.78.44,1.18.64l1,.51a69.95,69.95,0,0,0,81.21-12.75l2.57-2.56A45.48,45.48,0,0,0,147,80.66l0-28h0a32.72,32.72,0,0,1,9.7-20.39L158,31,185,4.1l.07-.07A2.34,2.34,0,0,0,183.42,0Z"/><path class="cls-4" d="M546.29,316.23a17.09,17.09,0,0,1,8.86-2.25,18.26,18.26,0,0,1,9.43,2.49,17.61,17.61,0,0,1,6.66,7A21.92,21.92,0,0,1,573.66,334a22.46,22.46,0,0,1-2.42,10.54,17.75,17.75,0,0,1-16.09,9.75,17.05,17.05,0,0,1-8.79-2.24,16.08,16.08,0,0,1-5.8-5.59v25.69h-6.48V314.62h6.48v7.19A15.38,15.38,0,0,1,546.29,316.23Zm19,10.07a12.38,12.38,0,0,0-4.81-5,13.35,13.35,0,0,0-6.65-1.7,13,13,0,0,0-6.58,1.74,12.74,12.74,0,0,0-4.84,5,17.16,17.16,0,0,0,0,15.38,12.68,12.68,0,0,0,4.84,5.05,13.38,13.38,0,0,0,13.23,0,12.48,12.48,0,0,0,4.81-5.05A16.33,16.33,0,0,0,567,334,15.9,15.9,0,0,0,565.26,326.3Z"/><path class="cls-4" d="M607.5,315.76a15.11,15.11,0,0,1,7.72-1.85v6.69h-1.7q-10.89,0-10.89,11.82v21.21h-6.48v-39h6.48V321A12.41,12.41,0,0,1,607.5,315.76Z"/><path class="cls-4" d="M643.73,351.78a17.75,17.75,0,0,1-7-7.08,21.76,21.76,0,0,1-2.52-10.64,21.09,21.09,0,0,1,2.59-10.57,18,18,0,0,1,7.09-7.05,21.7,21.7,0,0,1,20.07,0,17.94,17.94,0,0,1,7.08,7,21.07,21.07,0,0,1,2.6,10.61A20.78,20.78,0,0,1,671,344.7a18.49,18.49,0,0,1-7.23,7.08,20.68,20.68,0,0,1-10.1,2.49A20,20,0,0,1,643.73,351.78Zm16.48-4.84a12.4,12.4,0,0,0,4.94-4.91,15.72,15.72,0,0,0,1.89-8,16,16,0,0,0-1.85-8,12.19,12.19,0,0,0-4.84-4.87,14,14,0,0,0-13,0,11.71,11.71,0,0,0-4.73,4.87,16.48,16.48,0,0,0-1.78,8,17,17,0,0,0,1.74,8,11.56,11.56,0,0,0,4.66,4.87,13.09,13.09,0,0,0,6.41,1.61A13.72,13.72,0,0,0,660.21,346.94Z"/><path class="cls-4" d="M708.36,316.23a17.06,17.06,0,0,1,8.86-2.25,18.26,18.26,0,0,1,9.43,2.49,17.59,17.59,0,0,1,6.65,7A21.81,21.81,0,0,1,735.72,334a22.34,22.34,0,0,1-2.42,10.54,17.72,17.72,0,0,1-16.08,9.75,17.05,17.05,0,0,1-8.79-2.24,16,16,0,0,1-5.8-5.59v25.69h-6.48V314.62h6.48v7.19A15.38,15.38,0,0,1,708.36,316.23Zm19,10.07a12.38,12.38,0,0,0-4.81-5,13.38,13.38,0,0,0-6.65-1.7,13,13,0,0,0-6.59,1.74,12.81,12.81,0,0,0-4.84,5,17.24,17.24,0,0,0,0,15.38,12.74,12.74,0,0,0,4.84,5.05,13.4,13.4,0,0,0,13.24,0,12.48,12.48,0,0,0,4.81-5.05,16.33,16.33,0,0,0,1.77-7.8A15.9,15.9,0,0,0,727.33,326.3Z"/><path class="cls-4" d="M793.59,336.55H762.42a12.26,12.26,0,0,0,12.67,12.24,12,12,0,0,0,7-2,10.38,10.38,0,0,0,3.95-5.23h7a16.76,16.76,0,0,1-6.26,9.15,18.88,18.88,0,0,1-11.67,3.52,19.68,19.68,0,0,1-9.93-2.49,17.61,17.61,0,0,1-6.87-7.08,22,22,0,0,1-2.49-10.64,22.21,22.21,0,0,1,2.42-10.61,17,17,0,0,1,6.79-7A20.23,20.23,0,0,1,775.09,314a19.61,19.61,0,0,1,9.82,2.42,16.86,16.86,0,0,1,6.58,6.66,19.64,19.64,0,0,1,2.31,9.57A38.82,38.82,0,0,1,793.59,336.55Zm-8.11-11.64a10.76,10.76,0,0,0-4.45-4.06,14,14,0,0,0-6.23-1.39,12,12,0,0,0-8.36,3.14,12.69,12.69,0,0,0-4,8.68h24.62A12,12,0,0,0,785.48,324.91Z"/><path class="cls-4" d="M827.65,315.76a15.08,15.08,0,0,1,7.72-1.85v6.69h-1.71q-10.89,0-10.89,11.82v21.21H816.3v-39h6.47V321A12.5,12.5,0,0,1,827.65,315.76Z"/><path class="cls-4" d="M864.69,320v23c0,1.9.41,3.24,1.21,4s2.21,1.18,4.2,1.18h4.77v5.48H869q-5.41,0-8.12-2.49t-2.7-8.19V320h-5.06v-5.34h5.06V304.8h6.47v9.82h10.18V320Z"/><path class="cls-4" d="M930.25,314.62,906.76,372h-6.69l7.69-18.79L892,314.62h7.19l12.24,31.61,12.1-31.61Z"/><path class="cls-4" d="M990.71,351.78a17.72,17.72,0,0,1-7-7.08,21.66,21.66,0,0,1-2.53-10.64,21,21,0,0,1,2.6-10.57,17.91,17.91,0,0,1,7.08-7.05,21.7,21.7,0,0,1,20.07,0,17.94,17.94,0,0,1,7.08,7,21.07,21.07,0,0,1,2.6,10.61A20.78,20.78,0,0,1,1018,344.7a18.53,18.53,0,0,1-7.22,7.08,20.75,20.75,0,0,1-10.11,2.49A20,20,0,0,1,990.71,351.78Zm16.48-4.84a12.49,12.49,0,0,0,4.95-4.91,15.82,15.82,0,0,0,1.88-8,16,16,0,0,0-1.85-8,12.13,12.13,0,0,0-4.84-4.87,14,14,0,0,0-13,0,11.71,11.71,0,0,0-4.73,4.87,16.48,16.48,0,0,0-1.78,8,17,17,0,0,0,1.74,8,11.56,11.56,0,0,0,4.66,4.87,13.09,13.09,0,0,0,6.41,1.61A13.72,13.72,0,0,0,1007.19,346.94Z"/><path class="cls-4" d="M1059,320h-8.18v33.67h-6.48V320h-5v-5.34h5v-2.77q0-6.56,3.38-9.57t10.86-3v5.41c-2.85,0-4.85.56-6,1.67s-1.74,3-1.74,5.52v2.77H1059Z"/><path class="cls-4" d="M1118.29,348.29h19.15v5.34h-26.55v-5.34l18.93-28.4H1111v-5.27h26.27v5.27Z"/><path class="cls-4" d="M1159.79,323.49a17.59,17.59,0,0,1,6.65-7,18.28,18.28,0,0,1,9.43-2.49,17.31,17.31,0,0,1,8.9,2.21,14.62,14.62,0,0,1,5.62,5.55v-7.12h6.55v39h-6.55v-7.26a15.31,15.31,0,0,1-5.72,5.66,17.22,17.22,0,0,1-8.87,2.24,17.66,17.66,0,0,1-9.39-2.56,18,18,0,0,1-6.62-7.19,22.46,22.46,0,0,1-2.42-10.54A21.92,21.92,0,0,1,1159.79,323.49Zm28.83,2.88a12.59,12.59,0,0,0-4.81-5,13.66,13.66,0,0,0-13.27,0,12.35,12.35,0,0,0-4.77,5A15.79,15.79,0,0,0,1164,334a16.21,16.21,0,0,0,1.78,7.8,12.45,12.45,0,0,0,4.77,5.05,12.92,12.92,0,0,0,6.62,1.75,13.11,13.11,0,0,0,6.65-1.75,12.48,12.48,0,0,0,4.81-5.05,16.14,16.14,0,0,0,1.77-7.72A15.91,15.91,0,0,0,1188.62,326.37Z"/><path class="cls-4" d="M1276.87,315.8a13.59,13.59,0,0,1,5.63,5.66,18.93,18.93,0,0,1,2.06,9.18v23h-6.4V331.56c0-3.89-1-6.86-2.89-8.93a10.14,10.14,0,0,0-7.79-3.09,10.43,10.43,0,0,0-8,3.23q-3,3.24-3,9.36v21.5H1250V331.56c0-3.89-1-6.86-2.88-8.93a10.15,10.15,0,0,0-7.8-3.09,10.43,10.43,0,0,0-8,3.23q-3,3.24-3,9.36v21.5h-6.48v-39h6.48v5.63a12.78,12.78,0,0,1,5.16-4.7,15.68,15.68,0,0,1,7.16-1.64,16.9,16.9,0,0,1,8.68,2.21,13.45,13.45,0,0,1,5.62,6.48,12.8,12.8,0,0,1,5.41-6.41,16,16,0,0,1,8.4-2.28A17,17,0,0,1,1276.87,315.8Z"/><path class="cls-4" d="M1330.9,353.63l-15.31-17.23v17.23h-6.47V301h6.47v31l15-17.3h9l-18.36,19.44,18.43,19.57Z"/><path class="cls-4" d="M1359.72,323.49a17.68,17.68,0,0,1,6.66-7,18.23,18.23,0,0,1,9.43-2.49,17.33,17.33,0,0,1,8.9,2.21,14.76,14.76,0,0,1,5.62,5.55v-7.12h6.55v39h-6.55v-7.26a15.27,15.27,0,0,1-5.73,5.66,17.18,17.18,0,0,1-8.86,2.24,17.67,17.67,0,0,1-9.4-2.56,18.06,18.06,0,0,1-6.62-7.19A22.46,22.46,0,0,1,1357.3,334,21.92,21.92,0,0,1,1359.72,323.49Zm28.83,2.88a12.63,12.63,0,0,0-4.8-5,13.68,13.68,0,0,0-13.28,0,12.49,12.49,0,0,0-4.77,5,15.9,15.9,0,0,0-1.78,7.68,16.33,16.33,0,0,0,1.78,7.8,12.59,12.59,0,0,0,4.77,5.05,12.92,12.92,0,0,0,6.62,1.75,13.15,13.15,0,0,0,6.66-1.75,12.52,12.52,0,0,0,4.8-5.05,16,16,0,0,0,1.78-7.72A15.8,15.8,0,0,0,1388.55,326.37Z"/><path class="cls-4" d="M1433.14,315.76a15.11,15.11,0,0,1,7.72-1.85v6.69h-1.7q-10.89,0-10.89,11.82v21.21h-6.48v-39h6.48V321A12.41,12.41,0,0,1,1433.14,315.76Z"/><path class="cls-4" d="M1462.29,323.49a17.59,17.59,0,0,1,6.65-7,18.26,18.26,0,0,1,9.43-2.49,17.33,17.33,0,0,1,8.9,2.21,14.69,14.69,0,0,1,5.62,5.55v-7.12h6.55v39h-6.55v-7.26a15.27,15.27,0,0,1-5.73,5.66,17.18,17.18,0,0,1-8.86,2.24,17.66,17.66,0,0,1-9.39-2.56,18,18,0,0,1-6.62-7.19,22.34,22.34,0,0,1-2.42-10.54A21.81,21.81,0,0,1,1462.29,323.49Zm28.82,2.88a12.5,12.5,0,0,0-4.8-5,13.68,13.68,0,0,0-13.28,0,12.4,12.4,0,0,0-4.76,5,15.79,15.79,0,0,0-1.78,7.68,16.21,16.21,0,0,0,1.78,7.8,12.5,12.5,0,0,0,4.76,5.05,13,13,0,0,0,6.62,1.75,13.15,13.15,0,0,0,6.66-1.75,12.39,12.39,0,0,0,4.8-5.05,16,16,0,0,0,1.78-7.72A15.8,15.8,0,0,0,1491.11,326.37Z"/><path class="cls-4" d="M1527.56,330h-4.72a9.42,9.42,0,1,1,9.45-9.42v4.72H1537v-4.72a9.42,9.42,0,1,1,9.42,9.42h-4.72v4.72h4.72a9,9,0,0,1,6.66,2.77,9.43,9.43,0,1,1-16.08,6.68v-4.73h-4.72v4.73a9.43,9.43,0,1,1-9.45-9.45h4.72Zm0-4.7v-4.72a4.71,4.71,0,1,0-4.72,4.72Zm0,14.14h-4.72a4.72,4.72,0,1,0,4.72,4.73Zm4.73-4.72H1537V330h-4.72Zm9.42-9.42h4.72a4.72,4.72,0,1,0-4.72-4.72Zm0,14.14v4.73a4.5,4.5,0,0,0,1.39,3.32,4.72,4.72,0,0,0,8.06-3.35,4.51,4.51,0,0,0-1.4-3.32,4.57,4.57,0,0,0-3.33-1.38Z"/><path class="cls-4" d="M1056.1,141.65a12.56,12.56,0,0,0-8.53,3.22,15.16,15.16,0,0,0-4.77,9,14.24,14.24,0,0,0-.27,3.09,9.07,9.07,0,0,0,2.42,6.76,9,9,0,0,0,6.58,2.38,12.6,12.6,0,0,0,8.53-3.22,15.1,15.1,0,0,0,4.76-9,14.07,14.07,0,0,0,.27-3.08,9.07,9.07,0,0,0-2.41-6.76A9,9,0,0,0,1056.1,141.65Z"/><path class="cls-4" d="M721.47,141.65a12.56,12.56,0,0,0-8.52,3.22,15.06,15.06,0,0,0-4.77,9,14.24,14.24,0,0,0-.27,3.09,9.07,9.07,0,0,0,2.42,6.76,9,9,0,0,0,6.58,2.38,12.56,12.56,0,0,0,8.52-3.22,15.16,15.16,0,0,0,4.77-9,14.07,14.07,0,0,0,.27-3.08,9.07,9.07,0,0,0-2.42-6.76A9,9,0,0,0,721.47,141.65Z"/><path class="cls-4" d="M1499.14,33.33H591.37A112.87,112.87,0,0,0,478.5,146.2h0A112.88,112.88,0,0,0,591.37,259.07h907.77A112.88,112.88,0,0,0,1612,146.2h0A112.87,112.87,0,0,0,1499.14,33.33ZM626.14,140l-35,26.51h31.55l-4.43,23.67H554l4.16-22.39,33.7-26.51H563.43l4.43-23.68H630.3Zm127,50.18H723.49l1.88-9.9a26.42,26.42,0,0,1-9.67,7.91,29.83,29.83,0,0,1-13.3,2.9q-11.42,0-18.39-7.34t-7-20.33a47.61,47.61,0,0,1,.94-9.53A52.82,52.82,0,0,1,685.75,134a39.62,39.62,0,0,1,13.57-12.87,33.79,33.79,0,0,1,16.78-4.44q7.38,0,12.22,2.9a15.3,15.3,0,0,1,6.71,7.91l1.88-9.91h29.68Zm200.48-42.08-7.79,42.08H916.18l7.11-38.47a13.51,13.51,0,0,0,.14-2.19,7.12,7.12,0,0,0-2.35-5.73,9.76,9.76,0,0,0-6.51-2,13,13,0,0,0-8.13,2.51,11.36,11.36,0,0,0-4.23,6.88l-7.25,39H865.29l7.11-38.47a13.51,13.51,0,0,0,.14-2.19,7.12,7.12,0,0,0-2.35-5.73,9.77,9.77,0,0,0-6.52-2,12.8,12.8,0,0,0-8.12,2.57,11.64,11.64,0,0,0-4.23,7l-7.25,38.86H814.26l13.43-72.58H857.5l-1.88,9.78a31.35,31.35,0,0,1,23.77-10.29,26.66,26.66,0,0,1,13.89,3.41,19.47,19.47,0,0,1,8.26,9.72,43.38,43.38,0,0,1,12.29-9.46,31.93,31.93,0,0,1,15-3.67q12.36,0,19,6.18t6.65,17.11A40,40,0,0,1,953.64,148.08Zm141.4,5.79a53,53,0,0,1-7.79,19.89,39.68,39.68,0,0,1-13.56,12.87,33.85,33.85,0,0,1-16.79,4.44q-7.38,0-12.15-2.9a15.37,15.37,0,0,1-6.65-7.91l-8.19,44.65H1000.1l19.74-107.33h29.81l-1.88,9.91a26.6,26.6,0,0,1,9.6-7.91,29.4,29.4,0,0,1,13.23-2.9q11.42,0,18.39,7.34t7,20.33A48.18,48.18,0,0,1,1095,153.87Zm112.93-6.3h-8.46q-8.46,0-13,2.83t-5.84,10l-5.51,29.72h-29.81l13.43-72.58h29.81L1186.21,131a47.83,47.83,0,0,1,13-10.1,30.42,30.42,0,0,1,14.3-3.8Zm76.67,47.61q-5.37,29.73-36.53,29.73h-9.93l4.43-24.32h5.77a7.1,7.1,0,0,0,4.43-1.16,6.13,6.13,0,0,0,2-3.73l14.37-78.12H1299Zm17.72-91.62a18,18,0,0,1-7.11,6,22.81,22.81,0,0,1-10.21,2.25q-7,0-10.94-3.21a10.29,10.29,0,0,1-4-8.37,14.87,14.87,0,0,1,2.55-8.36,17.6,17.6,0,0,1,7.18-6.12,23.19,23.19,0,0,1,10.27-2.25q6.85,0,10.81,3.28a10.59,10.59,0,0,1,4,8.56A14.28,14.28,0,0,1,1302.36,103.56Zm128.11,86.6h-35.59l-13.29-28.95-5.37,28.95h-29.81L1364,94.94h29.81l-9.27,49.93,24-27.29h34.64l-35,36.55Zm110.24-48.77h-12.36L1524.73,161a5.23,5.23,0,0,0-.13,1.29q0,3.6,4.83,3.6h7.12L1532,190.16H1520.7q-26.46,0-26.45-21.49a46.2,46.2,0,0,1,.8-8.23l3.49-19.05h-9.4l4.44-23.81h9.4l3.22-17.5H1536l-3.22,17.5h12.35Z"/></g></g></svg>