<svg xmlns="http://www.w3.org/2000/svg" viewBox="0 0 1968.99 390.07"><defs><style>.cls-1{fill:#fff;}.cls-2{fill:none;stroke:#231f20;stroke-miterlimit:10;}.cls-3{fill:#231f20;}</style></defs><g id="Layer_2" data-name="Layer 2"><g id="Layer_1-2" data-name="Layer 1"><path class="cls-1" d="M5.54,335,46,375.43a45.42,45.42,0,0,0,32.16,13.34h.06l15.25,0h.06l59.09-.08a4.55,4.55,0,0,0,4.54-4.55L157,331.65a2.72,2.72,0,0,1,.8-1.92h0l86.42-86.06,91-90.61,49.59-49.38a14.12,14.12,0,0,0,4.14-10V65.86a16.89,16.89,0,0,0-4.93-12L343.7,13.38A45.44,45.44,0,0,0,311.5,0H239.81a7.26,7.26,0,0,0-7.25,7.26V50.58l0,.19A20.86,20.86,0,0,1,226.64,64h0l-80.86,81.18L54,237.42,4.7,286.89a14.07,14.07,0,0,0-4.11,9.93V323A16.86,16.86,0,0,0,5.54,335Z"/><polygon class="cls-2" points="0.5 388.49 0.87 388.49 0.5 388.86 0.5 388.49"/><path class="cls-1" d="M384.05,53.82,343.64,13.34A45.44,45.44,0,0,0,311.48,0h-.06L296.16,0h-.05L237,.1a4.55,4.55,0,0,0-4.54,4.55l.07,52.47a2.72,2.72,0,0,1-.8,1.92h0L145.33,145.1l-91,90.61L4.74,285.09a14.09,14.09,0,0,0-4.15,10v27.84a16.94,16.94,0,0,0,4.93,11.95l40.36,40.53a45.46,45.46,0,0,0,32.2,13.38h71.69a7.26,7.26,0,0,0,7.26-7.26V338A20.87,20.87,0,0,1,163,324.76h0l80.85-81.18,91.83-92.23,49.26-49.47A14.06,14.06,0,0,0,389,92V65.78A16.85,16.85,0,0,0,384.05,53.82Z"/><path class="cls-1" d="M162.4,325.35l-3.08,5.7a17,17,0,0,0-2,7.93L157,384.23a4.55,4.55,0,0,1-4.54,4.54H92.57a14.12,14.12,0,0,0,10-4.14Z"/><path class="cls-1" d="M357.29,273.35h0a69.71,69.71,0,0,0-98.48-.1l-2.67,2.65a45.47,45.47,0,0,0-13.38,32.2v25.44a23.49,23.49,0,0,1-6.84,16.57l-34.37,34.52c-2.64,2.65-.81,4.14-.81,4.14H322.51a45.41,45.41,0,0,0,32.2-13.38l7.06-7.08a91,91,0,0,0,26.5-64.11h0Z"/><path class="cls-1" d="M295.92,0a14.09,14.09,0,0,0-9.19,4.08L237.06,53.55,231.55,59l-.07-54.39A4.55,4.55,0,0,1,236,.1Z"/><path class="cls-1" d="M183.42,0l-40,.05-.34,0a3.71,3.71,0,0,0-.67-.06L67.17.1c-.6,0-1.2,0-1.79,0A45.38,45.38,0,0,0,35,13.51L17.22,31.41A2.27,2.27,0,0,0,16.55,33l.06,47.82A45.44,45.44,0,0,0,30,113.05l2.51,2.51.05,0A71.11,71.11,0,0,0,42,123.47c.75.51,1.5,1,2.26,1.5,1.14.73,2.3,1.42,3.47,2.07.39.22.78.44,1.18.64l1,.51a69.95,69.95,0,0,0,81.21-12.75l2.57-2.56A45.48,45.48,0,0,0,147,80.66l0-28h0a32.72,32.72,0,0,1,9.7-20.39L158,31,185,4.1l.07-.07A2.34,2.34,0,0,0,183.42,0Z"/><path class="cls-1" d="M550.11,292.62A20.45,20.45,0,0,1,560.65,290a21.74,21.74,0,0,1,11.21,3,21,21,0,0,1,7.92,8.34,26.12,26.12,0,0,1,2.87,12.48,26.72,26.72,0,0,1-2.87,12.53,21.09,21.09,0,0,1-19.13,11.59,20.15,20.15,0,0,1-10.45-2.66,19,19,0,0,1-6.9-6.65v30.56h-7.7V290.72h7.7v8.55A18.37,18.37,0,0,1,550.11,292.62Zm22.56,12a14.65,14.65,0,0,0-5.72-5.92,15.74,15.74,0,0,0-7.91-2,15.44,15.44,0,0,0-7.83,2.07,15,15,0,0,0-5.75,6,20.42,20.42,0,0,0,0,18.28,15.09,15.09,0,0,0,5.75,6A16,16,0,0,0,567,329a14.89,14.89,0,0,0,5.72-6,19.28,19.28,0,0,0,2.11-9.27A18.87,18.87,0,0,0,572.67,304.6Z"/><path class="cls-1" d="M622.9,292.07a18,18,0,0,1,9.18-2.2v8h-2q-12.94,0-12.95,14.05V337.1h-7.7V290.72h7.7v7.53A14.85,14.85,0,0,1,622.9,292.07Z"/><path class="cls-1" d="M666,334.9a21,21,0,0,1-8.29-8.42,25.75,25.75,0,0,1-3-12.65,25.08,25.08,0,0,1,3.09-12.57,21.27,21.27,0,0,1,8.42-8.38,25.85,25.85,0,0,1,23.87,0,21.36,21.36,0,0,1,8.42,8.34,27,27,0,0,1-.08,25.26,22,22,0,0,1-8.59,8.42,24.61,24.61,0,0,1-12,3A23.7,23.7,0,0,1,666,334.9Zm19.59-5.75a14.89,14.89,0,0,0,5.89-5.84,18.78,18.78,0,0,0,2.24-9.48,19,19,0,0,0-2.2-9.48,14.42,14.42,0,0,0-5.76-5.8,16.63,16.63,0,0,0-15.44,0,13.89,13.89,0,0,0-5.63,5.8,19.59,19.59,0,0,0-2.12,9.48,20,20,0,0,0,2.08,9.56,13.76,13.76,0,0,0,5.54,5.8,15.55,15.55,0,0,0,7.62,1.9A16.32,16.32,0,0,0,685.57,329.15Z"/><path class="cls-1" d="M742.83,292.62A20.45,20.45,0,0,1,753.37,290a21.71,21.71,0,0,1,11.21,3,21,21,0,0,1,7.92,8.34,26,26,0,0,1,2.88,12.48,26.61,26.61,0,0,1-2.88,12.53,21.09,21.09,0,0,1-19.13,11.59,20.15,20.15,0,0,1-10.45-2.66,19,19,0,0,1-6.9-6.65v30.56h-7.7V290.72H736v8.55A18.37,18.37,0,0,1,742.83,292.62Zm22.56,12a14.65,14.65,0,0,0-5.72-5.92,15.71,15.71,0,0,0-7.91-2,15.44,15.44,0,0,0-7.83,2.07,15.09,15.09,0,0,0-5.75,6,20.42,20.42,0,0,0,0,18.28,15.15,15.15,0,0,0,5.75,6,16,16,0,0,0,15.74,0,14.89,14.89,0,0,0,5.72-6,19.28,19.28,0,0,0,2.11-9.27A18.87,18.87,0,0,0,765.39,304.6Z"/><path class="cls-1" d="M844.19,316.79H807.11q.43,6.85,4.7,10.71a15,15,0,0,0,10.37,3.85,14.27,14.27,0,0,0,8.34-2.33,12.3,12.3,0,0,0,4.69-6.22h8.3a19.87,19.87,0,0,1-7.45,10.87q-5.58,4.2-13.88,4.19a23.41,23.41,0,0,1-11.81-3,20.88,20.88,0,0,1-8.16-8.42,26.07,26.07,0,0,1-3-12.65,26.45,26.45,0,0,1,2.88-12.61,20.18,20.18,0,0,1,8.08-8.34,24.05,24.05,0,0,1,12-2.92,23.28,23.28,0,0,1,11.68,2.88,19.8,19.8,0,0,1,7.83,7.91,23.39,23.39,0,0,1,2.75,11.38A45.18,45.18,0,0,1,844.19,316.79ZM834.54,303a12.63,12.63,0,0,0-5.29-4.82,16.52,16.52,0,0,0-7.41-1.65,14.27,14.27,0,0,0-9.94,3.72q-4.11,3.72-4.7,10.33h29.28A14.2,14.2,0,0,0,834.54,303Z"/><path class="cls-1" d="M884.68,292.07a18,18,0,0,1,9.19-2.2v8h-2q-13,0-13,14.05V337.1h-7.7V290.72h7.7v7.53A14.77,14.77,0,0,1,884.68,292.07Z"/><path class="cls-1" d="M928.74,297.07v27.34c0,2.25.48,3.85,1.44,4.78s2.62,1.39,5,1.39h5.67v6.52H933.9q-6.43,0-9.65-3T921,324.41V297.07h-6v-6.35h6V279h7.7v11.68h12.1v6.35Z"/><path class="cls-1" d="M1006.69,290.72l-27.93,68.22h-8L980,336.59l-18.71-45.87h8.55l14.56,37.58,14.39-37.58Z"/><path class="cls-1" d="M1078.59,334.9a21,21,0,0,1-8.29-8.42,25.75,25.75,0,0,1-3-12.65,25.08,25.08,0,0,1,3.09-12.57,21.27,21.27,0,0,1,8.42-8.38,25.85,25.85,0,0,1,23.87,0,21.36,21.36,0,0,1,8.42,8.34,27,27,0,0,1-.08,25.26,22,22,0,0,1-8.59,8.42,24.61,24.61,0,0,1-12,3A23.7,23.7,0,0,1,1078.59,334.9Zm19.59-5.75a14.89,14.89,0,0,0,5.89-5.84,21.35,21.35,0,0,0,0-19,14.42,14.42,0,0,0-5.76-5.8,16.63,16.63,0,0,0-15.44,0,13.89,13.89,0,0,0-5.63,5.8,19.59,19.59,0,0,0-2.12,9.48,20,20,0,0,0,2.08,9.56,13.76,13.76,0,0,0,5.54,5.8,15.55,15.55,0,0,0,7.62,1.9A16.32,16.32,0,0,0,1098.18,329.15Z"/><path class="cls-1" d="M1159.8,297.07h-9.73v40h-7.7v-40h-6v-6.35h6v-3.3q0-7.79,4-11.39t12.9-3.59v6.43c-3.38,0-5.77.66-7.15,2s-2.07,3.51-2.07,6.56v3.3h9.73Z"/><path class="cls-1" d="M1230.3,330.75h22.77v6.35H1221.5v-6.35L1244,297h-22.35v-6.26h31.23V297Z"/><path class="cls-1" d="M1279.65,301.26a20.92,20.92,0,0,1,7.91-8.34,21.78,21.78,0,0,1,11.22-3,20.58,20.58,0,0,1,10.58,2.62,17.43,17.43,0,0,1,6.68,6.6v-8.46h7.79V337.1H1316v-8.63a18.11,18.11,0,0,1-6.81,6.73,20.36,20.36,0,0,1-10.54,2.66,21,21,0,0,1-11.17-3,21.35,21.35,0,0,1-7.87-8.55,26.61,26.61,0,0,1-2.88-12.53A26,26,0,0,1,1279.65,301.26Zm34.28,3.43a14.91,14.91,0,0,0-5.72-6,16.21,16.21,0,0,0-15.78,0,14.73,14.73,0,0,0-5.67,5.92,18.87,18.87,0,0,0-2.12,9.14,19.28,19.28,0,0,0,2.12,9.27,15,15,0,0,0,5.67,6,15.35,15.35,0,0,0,7.87,2.07,15.57,15.57,0,0,0,7.91-2.07,14.89,14.89,0,0,0,5.72-6,19.08,19.08,0,0,0,2.11-9.18A18.84,18.84,0,0,0,1313.93,304.69Z"/><path class="cls-1" d="M1418.88,292.12a16.2,16.2,0,0,1,6.69,6.73,22.52,22.52,0,0,1,2.45,10.91V337.1h-7.62V310.86q0-6.93-3.43-10.62a12,12,0,0,0-9.26-3.68,12.38,12.38,0,0,0-9.57,3.85q-3.56,3.85-3.55,11.13V337.1H1387V310.86q0-6.93-3.43-10.62a12.05,12.05,0,0,0-9.27-3.68,12.37,12.37,0,0,0-9.56,3.85q-3.56,3.85-3.55,11.13V337.1h-7.71V290.72h7.71v6.69a15.16,15.16,0,0,1,6.13-5.59,18.56,18.56,0,0,1,8.51-1.95,20.05,20.05,0,0,1,10.32,2.63,16,16,0,0,1,6.69,7.7,15.26,15.26,0,0,1,6.43-7.62,19,19,0,0,1,10-2.71A20.24,20.24,0,0,1,1418.88,292.12Z"/><path class="cls-1" d="M1483.12,337.1l-18.2-20.48V337.1h-7.7V274.47h7.7v36.82l17.86-20.57h10.75l-21.84,23.11,21.93,23.27Z"/><path class="cls-1" d="M1517.4,301.26a20.92,20.92,0,0,1,7.91-8.34,21.78,21.78,0,0,1,11.22-3,20.58,20.58,0,0,1,10.58,2.62,17.43,17.43,0,0,1,6.68,6.6v-8.46h7.79V337.1h-7.79v-8.63a18.11,18.11,0,0,1-6.81,6.73,20.36,20.36,0,0,1-10.54,2.66,21,21,0,0,1-11.17-3,21.35,21.35,0,0,1-7.87-8.55,26.61,26.61,0,0,1-2.88-12.53A26,26,0,0,1,1517.4,301.26Zm34.28,3.43a14.91,14.91,0,0,0-5.72-6,16.21,16.21,0,0,0-15.78,0,14.73,14.73,0,0,0-5.67,5.92,18.87,18.87,0,0,0-2.12,9.14,19.28,19.28,0,0,0,2.12,9.27,15,15,0,0,0,5.67,6,15.35,15.35,0,0,0,7.87,2.07A15.57,15.57,0,0,0,1546,329a14.89,14.89,0,0,0,5.72-6,19.08,19.08,0,0,0,2.11-9.18A18.84,18.84,0,0,0,1551.68,304.69Z"/><path class="cls-1" d="M1604.7,292.07a18,18,0,0,1,9.19-2.2v8h-2q-12.94,0-12.94,14.05V337.1h-7.71V290.72h7.71v7.53A14.77,14.77,0,0,1,1604.7,292.07Z"/><path class="cls-1" d="M1639.36,301.26a21,21,0,0,1,7.91-8.34,21.78,21.78,0,0,1,11.22-3,20.58,20.58,0,0,1,10.58,2.62,17.53,17.53,0,0,1,6.69,6.6v-8.46h7.78V337.1h-7.78v-8.63a18.21,18.21,0,0,1-6.82,6.73,20.36,20.36,0,0,1-10.54,2.66,21,21,0,0,1-11.17-3,21.35,21.35,0,0,1-7.87-8.55,26.61,26.61,0,0,1-2.88-12.53A26,26,0,0,1,1639.36,301.26Zm34.28,3.43a15,15,0,0,0-5.71-6,16.23,16.23,0,0,0-15.79,0,14.73,14.73,0,0,0-5.67,5.92,18.87,18.87,0,0,0-2.12,9.14,19.28,19.28,0,0,0,2.12,9.27,15,15,0,0,0,5.67,6,15.35,15.35,0,0,0,7.87,2.07,15.61,15.61,0,0,0,7.92-2.07,14.93,14.93,0,0,0,5.71-6,19.09,19.09,0,0,0,2.12-9.18A18.84,18.84,0,0,0,1673.64,304.69Z"/><path class="cls-1" d="M1717,309.05h-5.61a11.19,11.19,0,1,1,11.23-11.21v5.62h5.62v-5.62a11.2,11.2,0,1,1,11.2,11.21h-5.62v5.61h5.62a11.23,11.23,0,1,1-11.2,11.24v-5.62h-5.62v5.62a11.22,11.22,0,0,1-22.44,0,11.23,11.23,0,0,1,11.21-11.24H1717Zm0-5.59v-5.62a5.62,5.62,0,0,0-5.61-5.61,5.36,5.36,0,0,0-3.95,1.65,5.63,5.63,0,0,0,0,7.94,5.39,5.39,0,0,0,3.95,1.64Zm0,16.82h-5.61a5.6,5.6,0,1,0,4,9.56,5.33,5.33,0,0,0,1.64-3.94Zm5.62-5.62h5.62v-5.61h-5.62Zm11.2-11.2h5.62a5.41,5.41,0,0,0,4-1.65,5.47,5.47,0,0,0,1.64-4,5.62,5.62,0,0,0-9.6-4,5.46,5.46,0,0,0-1.64,4Zm0,16.82v5.62a5.63,5.63,0,0,0,5.62,5.58,5.6,5.6,0,0,0,5.62-5.61,5.35,5.35,0,0,0-1.66-3.95,5.43,5.43,0,0,0-4-1.64Z"/><path class="cls-3" d="M596.78,62.86,555.22,164.43h41.56v19.91H530.7V166.42L572.26,64.85H530.7V44.93h66.08Z"/><path class="cls-3" d="M732.69,153.48H709l-4.78,30.86h-22L706.3,44.93h29.51l24.11,139.41H737.47Zm-2.91-20.32-8.93-58.35-8.94,58.35Z"/><path class="cls-3" d="M950.9,44.93V184.34h-22V88.75l-20.58,95.59H892.92L872.34,88.75v95.59H850.73V44.93H881.9L901,134l18.29-89Z"/><path class="cls-3" d="M1048.77,44.93h34.5q15.8,0,25.15,9.07t9.35,24.19V94.52q0,15.15-9.35,24.2t-25.15,9.06H1070.8v56.56h-22Zm33.46,62.94q6.43,0,10-3.39t3.53-9.56V77.79q0-6.17-3.53-9.55t-10-3.39H1070.8v43Z"/><path class="cls-3" d="M1259.5,184.34l-16-57.55h-11.43v57.55h-22V44.93h34.49q15.79,0,25.15,9.07T1279,78.19V93.53a35.32,35.32,0,0,1-4,16.93A28.73,28.73,0,0,1,1263.86,122l18.49,62.33Zm-27.44-77.47h11.43q6.45,0,10-3.38t3.53-9.56V77.79q0-6.17-3.53-9.55t-10-3.39h-11.43Z"/><path class="cls-3" d="M1366.73,184.34l2.91-18.92a32.88,32.88,0,0,0,8.52,1q7.89,0,11.43-4t3.53-12.95V44.93h22V153.28q0,14.92-9.35,24t-24.94,9.07A48.89,48.89,0,0,1,1366.73,184.34Z"/><path class="cls-3" d="M1542.54,127l-8.32,15.33v42h-22V44.93h22v56.56l29.1-56.56H1587l-31,59.15,33.25,80.26H1565.6Z"/><path class="cls-3" d="M1672,44.93h70.24V64.85h-24.1V184.34h-22V64.85H1672Z"/><path class="cls-1" d="M596.78,62.86,555.22,164.43h41.56v19.91H530.7V166.42L572.26,64.85H530.7V44.93h66.08Z"/><path class="cls-1" d="M732.69,153.48H709l-4.78,30.86h-22L706.3,44.93h29.51l24.11,139.41H737.47Zm-2.91-20.32-8.93-58.35-8.94,58.35Z"/><path class="cls-1" d="M950.9,44.93V184.34h-22V88.75l-20.58,95.59H892.92L872.34,88.75v95.59H850.73V44.93H881.9L901,134l18.29-89Z"/><path class="cls-1" d="M1048.77,44.93h34.5q15.8,0,25.15,9.07t9.35,24.19V94.52q0,15.15-9.35,24.2t-25.15,9.06H1070.8v56.56h-22Zm33.46,62.94q6.43,0,10-3.39t3.53-9.56V77.79q0-6.17-3.53-9.55t-10-3.39H1070.8v43Z"/><path class="cls-1" d="M1259.5,184.34l-16-57.55h-11.43v57.55h-22V44.93h34.49q15.79,0,25.15,9.07T1279,78.19V93.53a35.32,35.32,0,0,1-4,16.93A28.73,28.73,0,0,1,1263.86,122l18.49,62.33Zm-27.44-77.47h11.43q6.45,0,10-3.38t3.53-9.56V77.79q0-6.17-3.53-9.55t-10-3.39h-11.43Z"/><path class="cls-1" d="M1366.73,184.34l2.91-18.92a32.88,32.88,0,0,0,8.52,1q7.89,0,11.43-4t3.53-12.95V44.93h22V153.28q0,14.92-9.35,24t-24.94,9.07A48.89,48.89,0,0,1,1366.73,184.34Z"/><path class="cls-1" d="M1542.54,127l-8.32,15.33v42h-22V44.93h22v56.56l29.1-56.56H1587l-31,59.15,33.25,80.26H1565.6Z"/><path class="cls-1" d="M1672,44.93h70.24V64.85h-24.1V184.34h-22V64.85H1672Z"/><rect class="cls-1" x="459.31" y="0.02" width="8.51" height="388.85"/></g></g></svg>