<svg xmlns="http://www.w3.org/2000/svg" viewBox="0 0 1968.99 390.07"><defs><style>.cls-1,.cls-3,.cls-8{fill:#fff;}.cls-2{fill:none;stroke:#231f20;stroke-miterlimit:10;}.cls-3{font-size:73.55px;font-family:Poppins-Regular, Poppins;letter-spacing:0.2em;}.cls-4{letter-spacing:0.05em;}.cls-5{font-size:57.79px;font-family:LucidaGrande-Bold, Lucida Grande;font-weight:700;letter-spacing:0.05em;}.cls-6,.cls-8{font-size:173.07px;font-family:Bebas-Regular, Bebas;letter-spacing:0.35em;}.cls-6{fill:#231f20;}.cls-7{letter-spacing:0.35em;}</style></defs><g id="Layer_2" data-name="Layer 2"><g id="Layer_1-2" data-name="Layer 1"><path class="cls-1" d="M5.54,335,46,375.43a45.42,45.42,0,0,0,32.16,13.34h.06l15.25,0h.06l59.09-.08a4.55,4.55,0,0,0,4.54-4.55L157,331.65a2.72,2.72,0,0,1,.8-1.92h0l86.42-86.06,91-90.61,49.59-49.38a14.12,14.12,0,0,0,4.14-10V65.86a16.89,16.89,0,0,0-4.93-12L343.7,13.38A45.44,45.44,0,0,0,311.5,0H239.81a7.26,7.26,0,0,0-7.25,7.26V50.58l0,.19A20.86,20.86,0,0,1,226.64,64h0l-80.86,81.18L54,237.42,4.7,286.89a14.07,14.07,0,0,0-4.11,9.93V323A16.86,16.86,0,0,0,5.54,335Z"/><polygon class="cls-2" points="0.5 388.49 0.87 388.49 0.5 388.86 0.5 388.49"/><path class="cls-1" d="M384.05,53.82,343.64,13.34A45.44,45.44,0,0,0,311.48,0h-.06L296.16,0h-.05L237,.1a4.55,4.55,0,0,0-4.54,4.55l.07,52.47a2.72,2.72,0,0,1-.8,1.92h0L145.33,145.1l-91,90.61L4.74,285.09a14.09,14.09,0,0,0-4.15,10v27.84a16.94,16.94,0,0,0,4.93,11.95l40.36,40.53a45.46,45.46,0,0,0,32.2,13.38h71.69a7.26,7.26,0,0,0,7.26-7.26V338A20.87,20.87,0,0,1,163,324.76h0l80.85-81.18,91.83-92.23,49.26-49.47A14.06,14.06,0,0,0,389,92V65.78A16.85,16.85,0,0,0,384.05,53.82Z"/><path class="cls-1" d="M162.4,325.35l-3.08,5.7a17,17,0,0,0-2,7.93L157,384.23a4.55,4.55,0,0,1-4.54,4.54H92.57a14.12,14.12,0,0,0,10-4.14Z"/><path class="cls-1" d="M357.29,273.35h0a69.71,69.71,0,0,0-98.48-.1l-2.67,2.65a45.47,45.47,0,0,0-13.38,32.2v25.44a23.49,23.49,0,0,1-6.84,16.57l-34.37,34.52c-2.64,2.65-.81,4.14-.81,4.14H322.51a45.41,45.41,0,0,0,32.2-13.38l7.06-7.08a91,91,0,0,0,26.5-64.11h0Z"/><path class="cls-1" d="M295.92,0a14.09,14.09,0,0,0-9.19,4.08L237.06,53.55,231.55,59l-.07-54.39A4.55,4.55,0,0,1,236,.1Z"/><path class="cls-1" d="M183.42,0l-40,.05-.34,0a3.71,3.71,0,0,0-.67-.06L67.17.1c-.6,0-1.2,0-1.79,0A45.38,45.38,0,0,0,35,13.51L17.22,31.41A2.27,2.27,0,0,0,16.55,33l.06,47.82A45.44,45.44,0,0,0,30,113.05l2.51,2.51.05,0A71.11,71.11,0,0,0,42,123.47c.75.51,1.5,1,2.26,1.5,1.14.73,2.3,1.42,3.47,2.07.39.22.78.44,1.18.64l1,.51a69.95,69.95,0,0,0,81.21-12.75l2.57-2.56A45.48,45.48,0,0,0,147,80.66l0-28h0a32.72,32.72,0,0,1,9.7-20.39L158,31,185,4.1l.07-.07A2.34,2.34,0,0,0,183.42,0Z"/><text class="cls-3" transform="translate(528.42 340.44)">property of zamkar<tspan class="cls-4" x="959.18" y="0">a</tspan><tspan class="cls-5" x="1012.8" y="0">⌘</tspan></text><text class="cls-6" transform="translate(524.05 207.7) scale(1.04 1)">zamprj<tspan class="cls-7" x="812.9" y="0">k</tspan><tspan x="951.88" y="0">t</tspan></text><text class="cls-8" transform="translate(524.05 207.7) scale(1.04 1)">zamprj<tspan class="cls-7" x="812.9" y="0">k</tspan><tspan x="951.88" y="0">t</tspan></text><rect class="cls-1" x="459.31" y="0.02" width="8.51" height="388.85"/></g></g></svg>