<svg xmlns="http://www.w3.org/2000/svg" viewBox="0 0 2386.37 390.07"><defs><style>.cls-1{fill:#fff;}.cls-2{fill:none;stroke:#231f20;stroke-miterlimit:10;}.cls-3{fill:#231f20;}</style></defs><g id="Layer_2" data-name="Layer 2"><g id="Layer_1-2" data-name="Layer 1"><path class="cls-1" d="M5.54,335,46,375.43a45.42,45.42,0,0,0,32.16,13.34h.06l15.25,0h.06l59.09-.08a4.55,4.55,0,0,0,4.54-4.55L157,331.65a2.72,2.72,0,0,1,.8-1.92h0l86.42-86.06,91-90.61,49.59-49.38a14.12,14.12,0,0,0,4.14-10V65.86a16.89,16.89,0,0,0-4.93-12L343.7,13.38A45.44,45.44,0,0,0,311.5,0H239.81a7.26,7.26,0,0,0-7.25,7.26V50.58l0,.19A20.86,20.86,0,0,1,226.64,64h0l-80.86,81.18L54,237.42,4.7,286.89a14.07,14.07,0,0,0-4.11,9.93V323A16.86,16.86,0,0,0,5.54,335Z"/><polygon class="cls-2" points="0.5 388.49 0.87 388.49 0.5 388.86 0.5 388.49"/><path class="cls-1" d="M384.05,53.82,343.64,13.34A45.44,45.44,0,0,0,311.48,0h-.06L296.16,0h-.05L237,.1a4.55,4.55,0,0,0-4.54,4.55l.07,52.47a2.72,2.72,0,0,1-.8,1.92h0L145.33,145.1l-91,90.61L4.74,285.09a14.09,14.09,0,0,0-4.15,10v27.84a16.94,16.94,0,0,0,4.93,11.95l40.36,40.53a45.46,45.46,0,0,0,32.2,13.38h71.69a7.26,7.26,0,0,0,7.26-7.26V338A20.87,20.87,0,0,1,163,324.76h0l80.85-81.18,91.83-92.23,49.26-49.47A14.06,14.06,0,0,0,389,92V65.78A16.85,16.85,0,0,0,384.05,53.82Z"/><path class="cls-1" d="M162.4,325.35l-3.08,5.7a17,17,0,0,0-2,7.93L157,384.23a4.55,4.55,0,0,1-4.54,4.54H92.57a14.12,14.12,0,0,0,10-4.14Z"/><path class="cls-1" d="M357.29,273.35h0a69.71,69.71,0,0,0-98.48-.1l-2.67,2.65a45.47,45.47,0,0,0-13.38,32.2v25.44a23.49,23.49,0,0,1-6.84,16.57l-34.37,34.52c-2.64,2.65-.81,4.14-.81,4.14H322.51a45.41,45.41,0,0,0,32.2-13.38l7.06-7.08a91,91,0,0,0,26.5-64.11h0Z"/><path class="cls-1" d="M295.92,0a14.09,14.09,0,0,0-9.19,4.08L237.06,53.55,231.55,59l-.07-54.39A4.55,4.55,0,0,1,236,.1Z"/><path class="cls-1" d="M183.42,0l-40,.05-.34,0a3.71,3.71,0,0,0-.67-.06L67.17.1c-.6,0-1.2,0-1.79,0A45.38,45.38,0,0,0,35,13.51L17.22,31.41A2.27,2.27,0,0,0,16.55,33l.06,47.82A45.44,45.44,0,0,0,30,113.05l2.51,2.51.05,0A71.11,71.11,0,0,0,42,123.47c.75.51,1.5,1,2.26,1.5,1.14.73,2.3,1.42,3.47,2.07.39.22.78.44,1.18.64l1,.51a69.95,69.95,0,0,0,81.21-12.75l2.57-2.56A45.48,45.48,0,0,0,147,80.66l0-28h0a32.72,32.72,0,0,1,9.7-20.39L158,31,185,4.1l.07-.07A2.34,2.34,0,0,0,183.42,0Z"/><path class="cls-1" d="M552.57,295.83a22.85,22.85,0,0,1,11.77-3,24.29,24.29,0,0,1,12.53,3.31,23.3,23.3,0,0,1,8.84,9.32,29,29,0,0,1,3.22,13.94,29.63,29.63,0,0,1-3.22,14,23.59,23.59,0,0,1-21.37,13,22.51,22.51,0,0,1-11.67-3A21.42,21.42,0,0,1,545,336V370.1h-8.6V293.7H545v9.55A20.56,20.56,0,0,1,552.57,295.83Zm25.2,13.38a16.3,16.3,0,0,0-6.38-6.62,17.71,17.71,0,0,0-8.84-2.27,17.28,17.28,0,0,0-8.75,2.32,16.92,16.92,0,0,0-6.43,6.71,22.83,22.83,0,0,0,0,20.42,17,17,0,0,0,6.43,6.72,17.9,17.9,0,0,0,17.59,0,16.57,16.57,0,0,0,6.38-6.72,21.49,21.49,0,0,0,2.36-10.35A21,21,0,0,0,577.77,309.21Z"/><path class="cls-1" d="M633.89,295.22a20,20,0,0,1,10.26-2.46v8.89h-2.27q-14.48,0-14.47,15.69v28.18h-8.6V293.7h8.6v8.42A16.48,16.48,0,0,1,633.89,295.22Z"/><path class="cls-1" d="M682,343.06a23.58,23.58,0,0,1-9.27-9.41,28.91,28.91,0,0,1-3.35-14.13,28,28,0,0,1,3.45-14,23.82,23.82,0,0,1,9.41-9.37,28.88,28.88,0,0,1,26.66,0,24,24,0,0,1,9.41,9.32,27.94,27.94,0,0,1,3.45,14.09,27.54,27.54,0,0,1-3.55,14.13,24.56,24.56,0,0,1-9.59,9.41,27.5,27.5,0,0,1-13.43,3.31A26.5,26.5,0,0,1,682,343.06Zm21.89-6.43a16.53,16.53,0,0,0,6.57-6.52A20.9,20.9,0,0,0,713,319.52a21.21,21.21,0,0,0-2.46-10.59,16.11,16.11,0,0,0-6.43-6.48,18.55,18.55,0,0,0-17.26,0,15.68,15.68,0,0,0-6.29,6.48,22,22,0,0,0-2.36,10.59,22.43,22.43,0,0,0,2.32,10.68,15.41,15.41,0,0,0,6.19,6.48,17.36,17.36,0,0,0,8.51,2.12A18.16,18.16,0,0,0,703.9,336.63Z"/><path class="cls-1" d="M767.86,295.83a22.83,22.83,0,0,1,11.77-3,24.32,24.32,0,0,1,12.53,3.31,23.3,23.3,0,0,1,8.84,9.32,29.12,29.12,0,0,1,3.22,13.94,29.75,29.75,0,0,1-3.22,14,23.59,23.59,0,0,1-21.37,13,22.51,22.51,0,0,1-11.67-3,21.26,21.26,0,0,1-7.71-7.42V370.1h-8.6V293.7h8.6v9.55A20.56,20.56,0,0,1,767.86,295.83Zm25.2,13.38a16.36,16.36,0,0,0-6.38-6.62,17.71,17.71,0,0,0-8.84-2.27,17.25,17.25,0,0,0-8.75,2.32,16.92,16.92,0,0,0-6.43,6.71,22.83,22.83,0,0,0,0,20.42,17,17,0,0,0,6.43,6.72,17.24,17.24,0,0,0,8.75,2.31,17.44,17.44,0,0,0,8.84-2.31,16.63,16.63,0,0,0,6.38-6.72,21.6,21.6,0,0,0,2.36-10.35A21.12,21.12,0,0,0,793.06,309.21Z"/><path class="cls-1" d="M881.08,322.82H839.67q.48,7.67,5.25,12a16.71,16.71,0,0,0,11.58,4.3,15.92,15.92,0,0,0,9.31-2.6,13.8,13.8,0,0,0,5.25-6.95h9.27A22.29,22.29,0,0,1,872,341.69q-6.24,4.68-15.51,4.68a26.18,26.18,0,0,1-13.19-3.31,23.36,23.36,0,0,1-9.12-9.41,29.12,29.12,0,0,1-3.31-14.13,29.62,29.62,0,0,1,3.21-14.09,22.72,22.72,0,0,1,9-9.32,27,27,0,0,1,13.38-3.26,26,26,0,0,1,13,3.22,22.18,22.18,0,0,1,8.74,8.84,26.07,26.07,0,0,1,3.08,12.71A50.16,50.16,0,0,1,881.08,322.82Zm-10.77-15.45A14.17,14.17,0,0,0,864.4,302a18.44,18.44,0,0,0-8.28-1.85A16,16,0,0,0,845,304.29q-4.57,4.17-5.24,11.54h32.71A15.94,15.94,0,0,0,870.31,307.37Z"/><path class="cls-1" d="M926.33,295.22a20,20,0,0,1,10.26-2.46v8.89h-2.27q-14.48,0-14.47,15.69v28.18h-8.6V293.7h8.6v8.42A16.48,16.48,0,0,1,926.33,295.22Z"/><path class="cls-1" d="M975.54,300.8v30.53c0,2.53.53,4.31,1.61,5.35s2.93,1.56,5.57,1.56h6.34v7.28h-7.75q-7.2,0-10.78-3.31t-3.6-10.88V300.8h-6.71v-7.1h6.71v-13h8.61v13h13.52v7.1Z"/><path class="cls-1" d="M1062.62,293.7l-31.2,76.21h-8.89l10.21-25-20.9-51.25h9.55l16.27,42,16.07-42Z"/><path class="cls-1" d="M1142.94,343.06a23.58,23.58,0,0,1-9.27-9.41,28.8,28.8,0,0,1-3.36-14.13,28,28,0,0,1,3.45-14,23.88,23.88,0,0,1,9.41-9.37,28.9,28.9,0,0,1,26.67,0,23.93,23.93,0,0,1,9.4,9.32,27.94,27.94,0,0,1,3.45,14.09,27.63,27.63,0,0,1-3.54,14.13,24.52,24.52,0,0,1-9.6,9.41,27.46,27.46,0,0,1-13.42,3.31A26.47,26.47,0,0,1,1142.94,343.06Zm21.88-6.43a16.62,16.62,0,0,0,6.58-6.52,23.85,23.85,0,0,0,0-21.18,16.11,16.11,0,0,0-6.43-6.48,18.53,18.53,0,0,0-17.25,0,15.56,15.56,0,0,0-6.29,6.48,21.87,21.87,0,0,0-2.36,10.59,22.55,22.55,0,0,0,2.31,10.68,15.43,15.43,0,0,0,6.2,6.48,17.36,17.36,0,0,0,8.51,2.12A18.15,18.15,0,0,0,1164.82,336.63Z"/><path class="cls-1" d="M1233.66,300.8h-10.88v44.72h-8.6V300.8h-6.71v-7.1h6.71V290q0-8.7,4.49-12.72t14.42-4v7.19c-3.78,0-6.45.74-8,2.22s-2.32,3.92-2.32,7.33v3.68h10.88Z"/><path class="cls-1" d="M1312.42,338.43h25.43v7.09h-35.27v-7.09l25.15-37.73h-25v-7h34.89v7Z"/><path class="cls-1" d="M1367.54,305.48a23.3,23.3,0,0,1,8.84-9.32,24.29,24.29,0,0,1,12.53-3.31,23,23,0,0,1,11.81,2.93,19.62,19.62,0,0,1,7.47,7.38V293.7h8.7v51.82h-8.7v-9.65a20.28,20.28,0,0,1-7.61,7.52,22.7,22.7,0,0,1-11.77,3,23.49,23.49,0,0,1-12.48-3.41,23.82,23.82,0,0,1-8.79-9.55,29.63,29.63,0,0,1-3.22-14A29,29,0,0,1,1367.54,305.48Zm38.29,3.82a16.73,16.73,0,0,0-6.38-6.66,18.1,18.1,0,0,0-17.64-.05,16.45,16.45,0,0,0-6.33,6.62,21,21,0,0,0-2.36,10.21,21.49,21.49,0,0,0,2.36,10.35,16.72,16.72,0,0,0,6.33,6.72,17.19,17.19,0,0,0,8.8,2.31,17.44,17.44,0,0,0,8.84-2.31,16.63,16.63,0,0,0,6.38-6.72,23.37,23.37,0,0,0,0-20.47Z"/><path class="cls-1" d="M1523.07,295.26a18.17,18.17,0,0,1,7.47,7.52,25.08,25.08,0,0,1,2.74,12.2v30.54h-8.51V316.21q0-7.75-3.83-11.87t-10.35-4.11q-6.72,0-10.68,4.3t-4,12.43v28.56h-8.51V316.21q0-7.75-3.83-11.87t-10.36-4.11q-6.71,0-10.68,4.3t-4,12.43v28.56H1450V293.7h8.61v7.47a17,17,0,0,1,6.85-6.24,20.78,20.78,0,0,1,9.51-2.17,22.46,22.46,0,0,1,11.53,2.93,17.88,17.88,0,0,1,7.47,8.6,17,17,0,0,1,7.19-8.51,21.19,21.19,0,0,1,11.15-3A22.65,22.65,0,0,1,1523.07,295.26Z"/><path class="cls-1" d="M1594.83,345.52l-20.32-22.88v22.88h-8.61v-70h8.61v41.13l20-23h12l-24.39,25.82,24.49,26Z"/><path class="cls-1" d="M1633.13,305.48a23.3,23.3,0,0,1,8.84-9.32,24.29,24.29,0,0,1,12.53-3.31,23,23,0,0,1,11.81,2.93,19.62,19.62,0,0,1,7.47,7.38V293.7h8.7v51.82h-8.7v-9.65a20.28,20.28,0,0,1-7.61,7.52,22.7,22.7,0,0,1-11.77,3,23.49,23.49,0,0,1-12.48-3.41,23.82,23.82,0,0,1-8.79-9.55,29.63,29.63,0,0,1-3.22-14A29,29,0,0,1,1633.13,305.48Zm38.29,3.82a16.73,16.73,0,0,0-6.38-6.66,18.1,18.1,0,0,0-17.64-.05,16.45,16.45,0,0,0-6.33,6.62,21,21,0,0,0-2.36,10.21,21.49,21.49,0,0,0,2.36,10.35,16.72,16.72,0,0,0,6.33,6.72,17.19,17.19,0,0,0,8.8,2.31,17.44,17.44,0,0,0,8.84-2.31,16.63,16.63,0,0,0,6.38-6.72,23.37,23.37,0,0,0,0-20.47Z"/><path class="cls-1" d="M1730.65,295.22a20,20,0,0,1,10.26-2.46v8.89h-2.27q-14.46,0-14.46,15.69v28.18h-8.61V293.7h8.61v8.42A16.52,16.52,0,0,1,1730.65,295.22Z"/><path class="cls-1" d="M1769.37,305.48a23.3,23.3,0,0,1,8.84-9.32,24.32,24.32,0,0,1,12.53-3.31,23,23,0,0,1,11.82,2.93,19.62,19.62,0,0,1,7.47,7.38V293.7h8.7v51.82H1810v-9.65a20.28,20.28,0,0,1-7.61,7.52,22.77,22.77,0,0,1-11.78,3,23.49,23.49,0,0,1-12.48-3.41,23.82,23.82,0,0,1-8.79-9.55,29.75,29.75,0,0,1-3.21-14A29.12,29.12,0,0,1,1769.37,305.48Zm38.29,3.82a16.66,16.66,0,0,0-6.38-6.66,18.08,18.08,0,0,0-17.63-.05,16.47,16.47,0,0,0-6.34,6.62,21.12,21.12,0,0,0-2.36,10.21,21.6,21.6,0,0,0,2.36,10.35,16.74,16.74,0,0,0,6.34,6.72,17.18,17.18,0,0,0,8.79,2.31,17.41,17.41,0,0,0,8.84-2.31,16.57,16.57,0,0,0,6.38-6.72,23.29,23.29,0,0,0,0-20.47Z"/><path class="cls-1" d="M1856.08,314.18h-6.27a12.52,12.52,0,1,1,0-25,12.53,12.53,0,0,1,12.55,12.51v6.28h6.27v-6.28a12.52,12.52,0,1,1,12.52,12.52h-6.28v6.27h6.28A12.54,12.54,0,1,1,1868.63,333v-6.27h-6.27V333a12.53,12.53,0,1,1-12.55-12.55h6.27Zm0-6.24v-6.28a6,6,0,0,0-1.83-4.42,6.22,6.22,0,0,0-8.85,0,6.27,6.27,0,0,0,4.41,10.7Zm0,18.79h-6.27a6.26,6.26,0,1,0,6.27,6.27Zm6.28-6.28h6.27v-6.27h-6.27Zm12.51-12.51h6.28a6,6,0,0,0,4.44-1.85,6.09,6.09,0,0,0,1.83-4.43,6.28,6.28,0,0,0-12.55,0Zm0,18.79V333a6,6,0,0,0,1.85,4.41,6.27,6.27,0,0,0,10.7-4.44,6,6,0,0,0-1.85-4.41,6.07,6.07,0,0,0-4.42-1.83Z"/><path class="cls-3" d="M635.24,53.2,571.7,208.48h63.54v30.45h-101V211.52L597.75,56.25H534.21V25.8h101Z"/><path class="cls-3" d="M843,191.73H806.79l-7.3,47.2H765.81L802.66,25.8h45.12l36.85,213.13H850.32Zm-4.45-31L824.9,71.47l-13.66,89.21Z"/><path class="cls-3" d="M1176.59,25.8V238.93h-33.67V92.78l-31.46,146.15H1088L1056.5,92.78V238.93h-33V25.8h47.66l29.22,136.1,28-136.1Z"/><path class="cls-3" d="M1326.22,25.8H1379q24.13,0,38.44,13.85t14.3,37v25q0,23.15-14.3,37T1379,152.46H1359.9v86.47h-33.68ZM1377.37,122q9.86,0,15.25-5.17t5.4-14.62V76q0-9.44-5.4-14.62t-15.25-5.17H1359.9V122Z"/><path class="cls-3" d="M1648.36,238.93l-24.46-88h-17.47v88h-33.68V25.8h52.74q24.13,0,38.44,13.85t14.3,37v23.44q0,14.61-6,25.88A43.89,43.89,0,0,1,1655,143.63l28.27,95.3Zm-41.93-118.44h17.47q9.84,0,15.25-5.18t5.4-14.61V76q0-9.44-5.4-14.62t-15.25-5.17h-17.47Z"/><path class="cls-3" d="M1812.29,238.93l4.45-28.93a50.51,50.51,0,0,0,13,1.52q12.06,0,17.47-6.09t5.4-19.79V25.8h33.68V191.43q0,22.83-14.3,36.69T1833.9,242A75.29,75.29,0,0,1,1812.29,238.93Z"/><path class="cls-3" d="M2081.06,151.24l-12.7,23.44v64.25h-33.68V25.8h33.68v86.47l44.47-86.47h36.22l-47.34,90.43,50.83,122.7h-36.21Z"/><path class="cls-3" d="M2279,25.8h107.38V56.25h-36.85V238.93h-33.68V56.25H2279Z"/><path class="cls-1" d="M635.24,53.2,571.7,208.48h63.54v30.45h-101V211.52L597.75,56.25H534.21V25.8h101Z"/><path class="cls-1" d="M843,191.73H806.79l-7.3,47.2H765.81L802.66,25.8h45.12l36.85,213.13H850.32Zm-4.45-31L824.9,71.47l-13.66,89.21Z"/><path class="cls-1" d="M1176.59,25.8V238.93h-33.67V92.78l-31.46,146.15H1088L1056.5,92.78V238.93h-33V25.8h47.66l29.22,136.1,28-136.1Z"/><path class="cls-1" d="M1326.22,25.8H1379q24.13,0,38.44,13.85t14.3,37v25q0,23.15-14.3,37T1379,152.46H1359.9v86.47h-33.68ZM1377.37,122q9.86,0,15.25-5.17t5.4-14.62V76q0-9.44-5.4-14.62t-15.25-5.17H1359.9V122Z"/><path class="cls-1" d="M1648.36,238.93l-24.46-88h-17.47v88h-33.68V25.8h52.74q24.13,0,38.44,13.85t14.3,37v23.44q0,14.61-6,25.88A43.89,43.89,0,0,1,1655,143.63l28.27,95.3Zm-41.93-118.44h17.47q9.84,0,15.25-5.18t5.4-14.61V76q0-9.44-5.4-14.62t-15.25-5.17h-17.47Z"/><path class="cls-1" d="M1812.29,238.93l4.45-28.93a50.51,50.51,0,0,0,13,1.52q12.06,0,17.47-6.09t5.4-19.79V25.8h33.68V191.43q0,22.83-14.3,36.69T1833.9,242A75.29,75.29,0,0,1,1812.29,238.93Z"/><path class="cls-1" d="M2081.06,151.24l-12.7,23.44v64.25h-33.68V25.8h33.68v86.47l44.47-86.47h36.22l-47.34,90.43,50.83,122.7h-36.21Z"/><path class="cls-1" d="M2279,25.8h107.38V56.25h-36.85V238.93h-33.68V56.25H2279Z"/><rect class="cls-1" x="459.31" y="0.02" width="8.51" height="388.85"/></g></g></svg>