<svg xmlns="http://www.w3.org/2000/svg" viewBox="0 0 2538.83 651.92"><defs><style>.cls-1{fill:#fff;}.cls-2{fill:#faa61a;}</style></defs><g id="Layer_2" data-name="Layer 2"><g id="Layer_1-2" data-name="Layer 1"><path class="cls-1" d="M113.39,0H651.92a0,0,0,0,1,0,0V651.92a0,0,0,0,1,0,0H113.39A113.39,113.39,0,0,1,0,538.53V113.39A113.39,113.39,0,0,1,113.39,0Z"/><path class="cls-2" d="M85.62,504.45,137,555.87a57.69,57.69,0,0,0,40.85,17h.08l19.38,0h.06l75.06-.1a5.77,5.77,0,0,0,5.77-5.78l-.09-66.65a3.47,3.47,0,0,1,1-2.45h0L388.85,388.5,504.44,273.41l63-62.73A17.91,17.91,0,0,0,572.7,198V162.64a21.46,21.46,0,0,0-6.26-15.17L515.17,96a57.7,57.7,0,0,0-40.9-17H383.21A9.21,9.21,0,0,0,374,88.21v55l0,.23a26.52,26.52,0,0,1-7.5,16.82h0L263.76,263.41,147.12,380.57,84.55,443.4A17.87,17.87,0,0,0,79.34,456v33.24A21.37,21.37,0,0,0,85.62,504.45Z"/><polygon class="cls-2" points="79.22 572.46 79.69 572.46 79.22 572.93 79.22 572.46"/><path class="cls-2" d="M566.42,147.35,515.09,95.93A57.72,57.72,0,0,0,474.24,79h-.08l-19.38,0h-.06l-75.06.1a5.78,5.78,0,0,0-5.78,5.78l.09,66.65a3.46,3.46,0,0,1-1,2.45h0L263.18,263.3,147.6,378.39l-63,62.73a17.9,17.9,0,0,0-5.26,12.68v35.36a21.4,21.4,0,0,0,6.26,15.17l51.27,51.49a57.7,57.7,0,0,0,40.9,17h91.06a9.22,9.22,0,0,0,9.22-9.22V508.33a26.53,26.53,0,0,1,7.51-16.82h0l102.7-103.12L504.92,271.23l62.57-62.83a17.91,17.91,0,0,0,5.21-12.62V162.54A21.41,21.41,0,0,0,566.42,147.35Z"/><path class="cls-2" d="M284.87,492.25,281,499.49a21.51,21.51,0,0,0-2.58,10.08L278.05,567a5.78,5.78,0,0,1-5.77,5.78H196.17a17.9,17.9,0,0,0,12.67-5.27Z"/><path class="cls-2" d="M532.43,426.21h0a88.56,88.56,0,0,0-125.1-.14L404,429.44a57.74,57.74,0,0,0-17,40.91v32.31a29.82,29.82,0,0,1-8.69,21.05l-43.65,43.84c-3.36,3.37-1,5.27-1,5.27H488.25a57.71,57.71,0,0,0,40.9-17l9-9a115.57,115.57,0,0,0,33.67-81.43h0Z"/><path class="cls-2" d="M454.48,79A17.86,17.86,0,0,0,442.8,84.2L379.71,147l-7,7-.09-69.1a5.78,5.78,0,0,1,5.78-5.78Z"/><path class="cls-2" d="M311.58,79l-50.86.07a3,3,0,0,1-.43,0,4.8,4.8,0,0,0-.85-.07l-95.53.12c-.76,0-1.53,0-2.28,0a57.67,57.67,0,0,0-38.6,17l-22.58,22.73A3,3,0,0,0,99.6,121l.08,60.74a57.71,57.71,0,0,0,17,40.88l3.19,3.19.06,0a89.38,89.38,0,0,0,12,10c.94.65,1.9,1.29,2.87,1.9,1.45.93,2.91,1.81,4.4,2.63.5.29,1,.56,1.5.83l1.23.64a88.85,88.85,0,0,0,103.16-16.2l3.26-3.25a57.72,57.72,0,0,0,16.94-40.92l0-35.59h0A41.5,41.5,0,0,1,277.62,120l1.62-1.59L313.58,84.2l.09-.09A3,3,0,0,0,311.58,79Z"/><path class="cls-2" d="M765.3,0H2538.83a0,0,0,0,1,0,0V651.92a0,0,0,0,1,0,0H765.3A113.39,113.39,0,0,1,651.92,538.53V113.39A113.39,113.39,0,0,1,765.3,0Z" transform="translate(3190.74 651.92) rotate(180)"/><path class="cls-1" d="M867.45,358.71,794.32,537.42h73.13v35H751.18V540.93l73.13-178.72H751.18v-35H867.45Z"/><path class="cls-1" d="M1046.25,518.15h-41.68l-8.41,54.31H957.4l42.42-245.29h51.92l42.41,245.29h-39.49Zm-5.12-35.74-15.72-102.68-15.72,102.68Z"/><path class="cls-1" d="M1369.85,327.17V572.46H1331.1V404.26l-36.2,168.2h-27.06l-36.2-168.2v168.2h-38V327.17h54.85l33.64,156.64,32.18-156.64Z"/><path class="cls-1" d="M1481.74,327.17h60.7q27.78,0,44.24,15.94t16.46,42.58v28.73q0,26.64-16.46,42.58t-44.24,15.94H1520.5v99.52h-38.76Zm58.87,110.73q11.33,0,17.55-6t6.22-16.82V385q0-10.86-6.22-16.82t-17.55-6H1520.5V437.9Z"/><path class="cls-1" d="M1792.18,572.46,1764,471.19h-20.11V572.46h-38.76V327.17h60.7q27.78,0,44.24,15.94t16.46,42.58v27q0,16.83-7,29.79a50.55,50.55,0,0,1-19.75,20.32l32.55,109.68Zm-48.27-136.31H1764q11.32,0,17.55-6t6.22-16.82V385q0-10.86-6.22-16.82t-17.55-6h-20.11Z"/><path class="cls-1" d="M1920.52,572.46l5.12-33.29a57.86,57.86,0,0,0,15,1.76q13.89,0,20.11-7t6.22-22.78v-184h38.76V517.8q0,26.28-16.46,42.22t-43.88,16A86.1,86.1,0,0,1,1920.52,572.46Z"/><path class="cls-1" d="M2169.52,471.54l-14.62,27v73.94h-38.76V327.17h38.76v99.52l51.19-99.52h41.68l-54.48,104.07,58.51,141.22h-41.69Z"/><path class="cls-1" d="M2337,327.17h123.59v35h-42.41V572.46h-38.76V362.21H2337Z"/><path class="cls-1" d="M755.41,80.85H801q20.88,0,33.25,12t12.36,32v21.6q0,20-12.36,32t-33.25,12H784.54V265.2H755.41Zm44.24,83.22q8.52,0,13.19-4.47T817.52,147V124.31q0-8.16-4.68-12.64t-13.19-4.48H784.54v56.88Z"/><path class="cls-1" d="M988.71,265.2l-21.16-76.11H952.44V265.2H923.31V80.85h45.61q20.88,0,33.25,12t12.37,32v20.28a46.81,46.81,0,0,1-5.22,22.39,38.12,38.12,0,0,1-14.84,15.27l24.45,82.43ZM952.44,162.76h15.11q8.52,0,13.19-4.48t4.67-12.64V124.31q0-8.16-4.67-12.64t-13.19-4.48H952.44Z"/><path class="cls-1" d="M1105.49,255.58q-12.91-12.24-12.91-32.26V122.73q0-20,12.91-32.26t33.8-12.25q20.88,0,33.8,12.25T1186,122.73V223.32q0,20-12.92,32.26t-33.8,12.25Q1118.41,267.83,1105.49,255.58Zm46.72-18.82q4.66-4.74,4.67-13.44V122.73q0-8.7-4.67-13.43t-12.92-4.74q-8.24,0-12.91,4.74t-4.67,13.43V223.32q0,8.7,4.67,13.44t12.91,4.74Q1147.54,241.5,1152.21,236.76Z"/><path class="cls-1" d="M1267.62,80.85h45.61q20.88,0,33.25,12t12.37,32v21.6q0,20-12.37,32t-33.25,12h-16.49V265.2h-29.12Zm44.24,83.22q8.51,0,13.19-4.47t4.67-12.65V124.31q0-8.16-4.67-12.64t-13.19-4.48h-15.12v56.88Z"/><path class="cls-1" d="M1435.51,80.85h82.71v26.34h-53.58v51.35h42.59v26.34h-42.59v54h53.58V265.2h-82.71Z"/><path class="cls-1" d="M1660.29,265.2l-21.16-76.11H1624V265.2h-29.13V80.85h45.61q20.88,0,33.25,12t12.37,32v20.28a46.81,46.81,0,0,1-5.22,22.39,38.12,38.12,0,0,1-14.84,15.27l24.45,82.43ZM1624,162.76h15.11q8.52,0,13.19-4.48t4.67-12.64V124.31q0-8.16-4.67-12.64t-13.19-4.48H1624Z"/><path class="cls-1" d="M1756.74,80.85h92.88v26.34h-31.88v158h-29.12v-158h-31.88Z"/><path class="cls-1" d="M2021.08,80.85l-39,107.19V265.2h-29.12V188l-39-107.19h31l22.53,70.32,23.08-70.32Z"/><path class="cls-1" d="M2212.33,255.58q-12.91-12.24-12.91-32.26V122.73q0-20,12.91-32.26t33.8-12.25q20.88,0,33.8,12.25t12.92,32.26V223.32q0,20-12.92,32.26t-33.8,12.25Q2225.25,267.83,2212.33,255.58Zm46.72-18.82q4.66-4.74,4.67-13.44V122.73q0-8.7-4.67-13.43t-12.92-4.74q-8.24,0-12.91,4.74t-4.67,13.43V223.32q0,8.7,4.67,13.44t12.91,4.74Q2254.38,241.5,2259.05,236.76Z"/><path class="cls-1" d="M2374.46,80.85h81.34v26.34h-52.21v54h41.21v26.33h-41.21V265.2h-29.13Z"/></g></g></svg>