<svg xmlns="http://www.w3.org/2000/svg" xmlns:xlink="http://www.w3.org/1999/xlink" viewBox="0 0 493.36 493.83"><defs><style>.cls-1{fill:#5bc0df;}.cls-2{fill:url(#linear-gradient);}.cls-3{fill:url(#linear-gradient-2);}.cls-4{fill:url(#linear-gradient-3);}.cls-5{fill:url(#linear-gradient-4);}.cls-6{fill:url(#linear-gradient-5);}</style><linearGradient id="linear-gradient" x1="338.7" y1="-79.95" x2="211.96" y2="368.71" gradientUnits="userSpaceOnUse"><stop offset="0" stop-color="#5bc0df"/><stop offset="1" stop-color="#4492a9"/></linearGradient><linearGradient id="linear-gradient-2" x1="214.29" y1="471.72" x2="158.94" y2="452.78" xlink:href="#linear-gradient"/><linearGradient id="linear-gradient-3" x1="253.45" y1="407.56" x2="492.44" y2="407.56" xlink:href="#linear-gradient"/><linearGradient id="linear-gradient-4" x1="340.39" y1="48.72" x2="306" y2="-14.06" xlink:href="#linear-gradient"/><linearGradient id="linear-gradient-5" x1="20.26" y1="86.28" x2="235.22" y2="86.28" xlink:href="#linear-gradient"/></defs><g id="Layer_2" data-name="Layer 2"><g id="Layer_1-2" data-name="Layer 1"><path class="cls-1" d="M6.28,425.47l51.33,51.42a57.74,57.74,0,0,0,40.85,16.94h.08l19.38,0H118l75.06-.1a5.78,5.78,0,0,0,5.77-5.79l-.08-66.64a3.46,3.46,0,0,1,1-2.45h0L309.51,309.51,425.1,194.43l63-62.74A17.89,17.89,0,0,0,493.36,119V83.66a21.48,21.48,0,0,0-6.26-15.18L435.83,17a57.73,57.73,0,0,0-40.9-17H303.87a9.22,9.22,0,0,0-9.22,9.22v55l0,.23a26.47,26.47,0,0,1-7.5,16.82h0L184.43,184.43,67.78,301.58,5.21,364.42A17.87,17.87,0,0,0,0,377v33.25A21.44,21.44,0,0,0,6.28,425.47Z"/><path class="cls-2" d="M487.08,68.36,435.75,16.94A57.73,57.73,0,0,0,394.9,0h-.08L375.44,0h-.06l-75.06.1a5.78,5.78,0,0,0-5.77,5.79l.09,66.64a3.47,3.47,0,0,1-1,2.45h0L183.85,184.32,68.26,299.4l-63,62.74A17.89,17.89,0,0,0,0,374.81v35.36a21.48,21.48,0,0,0,6.26,15.18l51.27,51.49a57.75,57.75,0,0,0,40.9,17h91.06a9.22,9.22,0,0,0,9.22-9.22v-55l0-.23a26.47,26.47,0,0,1,7.5-16.82h0L308.93,309.4,425.58,192.25l62.57-62.84a17.87,17.87,0,0,0,5.21-12.61V83.55A21.44,21.44,0,0,0,487.08,68.36Z"/><path class="cls-3" d="M205.54,413.27l-3.91,7.24a21.33,21.33,0,0,0-2.58,10.07l-.34,57.48a5.77,5.77,0,0,1-5.77,5.77H116.83a17.92,17.92,0,0,0,12.68-5.26Z"/><path class="cls-4" d="M453.09,347.22h0a88.55,88.55,0,0,0-125.1-.13l-3.38,3.37a57.71,57.71,0,0,0-17,40.9v32.31a29.82,29.82,0,0,1-8.69,21.05l-43.65,43.85c-3.36,3.37-1,5.26-1,5.26H408.91a57.75,57.75,0,0,0,40.91-17l9-9a115.58,115.58,0,0,0,33.66-81.44h0Z"/><path class="cls-5" d="M375.14,0a17.93,17.93,0,0,0-11.68,5.19L300.37,68l-7,7-.09-69.09A5.78,5.78,0,0,1,299.05.12Z"/><path class="cls-6" d="M232.24,0,181.38.11a3.13,3.13,0,0,1-.43,0A6,6,0,0,0,180.1,0L84.57.12c-.76,0-1.53,0-2.28.05a57.63,57.63,0,0,0-38.6,17L21.12,39.9A2.94,2.94,0,0,0,20.26,42l.08,60.75A57.74,57.74,0,0,0,37.39,143.6l3.2,3.18.06.06a90,90,0,0,0,12,10c1,.66,1.91,1.3,2.87,1.91,1.45.92,2.91,1.8,4.4,2.63.5.28,1,.56,1.51.82l1.22.64a88.81,88.81,0,0,0,103.16-16.2l3.26-3.25A57.67,57.67,0,0,0,186,102.46l0-35.58h0A41.62,41.62,0,0,1,198.29,41l1.62-1.58L234.24,5.21l.09-.09A3,3,0,0,0,232.24,0Z"/></g></g></svg>