<svg xmlns="http://www.w3.org/2000/svg" xmlns:xlink="http://www.w3.org/1999/xlink" viewBox="0 0 10 10"><defs><style>.cls-1{fill:#1d2533;}.cls-2{fill:url(#linear-gradient);}.cls-3{fill:url(#linear-gradient-2);}.cls-4{fill:url(#linear-gradient-3);}.cls-5{fill:url(#linear-gradient-4);}.cls-6{fill:url(#linear-gradient-5);}.cls-7{fill:url(#linear-gradient-6);}</style><linearGradient id="linear-gradient" x1="2.1" y1="5" x2="7.9" y2="5" gradientUnits="userSpaceOnUse"><stop offset="0" stop-color="#f3f4f4"/><stop offset="1" stop-color="#c2c4c6"/></linearGradient><linearGradient id="linear-gradient-2" x1="6.08" y1="10.85" x2="4.59" y2="5.57" gradientTransform="matrix(1, 0, 0, -1, 0, 12)" xlink:href="#linear-gradient"/><linearGradient id="linear-gradient-3" x1="4.62" y1="4.36" x2="3.97" y2="4.58" gradientTransform="matrix(1, 0, 0, -1, 0, 12)" xlink:href="#linear-gradient"/><linearGradient id="linear-gradient-4" x1="5.72" y1="6.89" x2="7.89" y2="6.89" xlink:href="#linear-gradient"/><linearGradient id="linear-gradient-5" x1="6.1" y1="9.33" x2="5.7" y2="10.07" gradientTransform="matrix(1, 0, 0, -1, 0, 12)" xlink:href="#linear-gradient"/><linearGradient id="linear-gradient-6" x1="2.34" y1="3.11" x2="4.29" y2="3.11" xlink:href="#linear-gradient"/></defs><g id="Layer_2" data-name="Layer 2"><g id="Layer_1-2" data-name="Layer 1"><rect class="cls-1" width="10" height="10" rx="5"/><path class="cls-2" d="M2.17,7.1l.61.61a.69.69,0,0,0,.48.19H4.37a.07.07,0,0,0,.07-.06h0V7.05a0,0,0,0,1,0,0h0L5.74,5.74,7.1,4.38l.74-.74A.2.2,0,0,0,7.9,3.5V3.08a.24.24,0,0,0-.07-.18l-.6-.6a.7.7,0,0,0-.49-.2H5.67a.1.1,0,0,0-.11.1h0v.65h0a.28.28,0,0,1-.08.2h0L4.27,4.26,2.9,5.64l-.74.74a.2.2,0,0,0-.06.15v.39A.24.24,0,0,0,2.17,7.1Z"/><path class="cls-3" d="M7.83,2.9l-.61-.61a.69.69,0,0,0-.48-.19H5.63a.07.07,0,0,0-.07.06h0V3a0,0,0,0,1,0,0h0L4.26,4.26,2.9,5.62l-.74.74a.2.2,0,0,0-.06.14v.42a.24.24,0,0,0,.07.18l.6.6a.7.7,0,0,0,.49.2H4.33a.1.1,0,0,0,.11-.1h0V7.15h0A.28.28,0,0,1,4.52,7h0L5.73,5.74,7.1,4.36l.74-.74a.22.22,0,0,0,.06-.15V3.08A.24.24,0,0,0,7.83,2.9Z"/><path class="cls-4" d="M4.52,7l0,.08a.27.27,0,0,0,0,.12v.68a.07.07,0,0,1-.07.06h-.9a.2.2,0,0,0,.15-.06Z"/><path class="cls-5" d="M7.89,6.64a1.38,1.38,0,0,1-.39,1l-.11.1a.67.67,0,0,1-.48.2h-1a.16.16,0,0,1-.16-.16v-1a.67.67,0,0,1,.2-.48l0,0a1,1,0,0,1,1.47,0Z"/><path class="cls-6" d="M6.51,2.1a.2.2,0,0,0-.14.06l-.74.74L5.55,3V2.16a.07.07,0,0,1,.07-.06h.89Z"/><path class="cls-7" d="M4.29,2.25v1a.72.72,0,0,1-.2.48l0,0A1,1,0,0,1,2.83,4h0l0,0,0,0a.53.53,0,0,1-.14-.12l0,0a.66.66,0,0,1-.2-.48V2.59a0,0,0,0,1,0,0l.26-.26a.65.65,0,0,1,.46-.2H4.14A.15.15,0,0,1,4.29,2.25Z"/></g></g></svg>